<svg id="Capa_1" data-name="Capa 1" xmlns="http://www.w3.org/2000/svg" viewBox="0 0 36.18 17.82"><defs><style>.cls-1{fill:#1d1d1b;}</style></defs><path class="cls-1" d="M9.48,9.32a.22.22,0,0,1,.22-.23h1.91c.61,0,1.23.26,1.23,1a.74.74,0,0,1-.32.63.83.83,0,0,1,.45.78c0,.67-.59,1-1.25,1h-2a.22.22,0,0,1-.22-.22Zm.88.41v.68h1.26a.31.31,0,0,0,.33-.34.31.31,0,0,0-.33-.34Zm0,1.29v.81h1.35a.36.36,0,0,0,.38-.4.37.37,0,0,0-.38-.41Z"/><path class="cls-1" d="M13.55,12.47a.14.14,0,0,1-.14-.15V9.24a.15.15,0,0,1,.14-.15h.53a.15.15,0,0,1,.14.15v3.08a.14.14,0,0,1-.14.15Z"/><path class="cls-1" d="M15.61,11.38c0,.4.19.57.45.57a1,1,0,0,0,.64-.34V10a.14.14,0,0,1,.14-.14h.52a.14.14,0,0,1,.15.14v2.29a.14.14,0,0,1-.15.15h-.52a.14.14,0,0,1-.14-.15v-.14a1.28,1.28,0,0,1-.83.34,1,1,0,0,1-1.07-1.14V10A.14.14,0,0,1,15,9.89h.52a.14.14,0,0,1,.14.14Z"/><path class="cls-1" d="M18.77,11.43a.53.53,0,0,0,.61.55.61.61,0,0,0,.46-.16.34.34,0,0,1,.27-.12h.35a.14.14,0,0,1,.14.14c0,.5-.51.68-1.28.68a1.23,1.23,0,0,1-1.38-1.34,1.24,1.24,0,0,1,1.38-1.34,1.22,1.22,0,0,1,1.37,1.31v.13a.14.14,0,0,1-.14.15Zm0-.5h1.09a.49.49,0,0,0-.54-.55A.5.5,0,0,0,18.77,10.93Z"/><path class="cls-1" d="M22.19,12.52c-.68,0-1-.34-1-1.06V9.24a.15.15,0,0,1,.15-.15h.52a.15.15,0,0,1,.15.15V10h.65a.14.14,0,0,1,.15.14v.28a.14.14,0,0,1-.15.14H22v.87c0,.32.17.5.41.5s.22,0,.33,0h.08a.14.14,0,0,1,.15.14v.25a.15.15,0,0,1-.15.15A3.61,3.61,0,0,1,22.19,12.52Z"/><path class="cls-1" d="M25.35,10.34a.14.14,0,0,1-.15.15h-.07l-.36,0a.78.78,0,0,0-.61.35v1.5a.14.14,0,0,1-.15.15h-.52a.15.15,0,0,1-.15-.15V10a.15.15,0,0,1,.15-.14H24a.14.14,0,0,1,.15.14v.15a1.55,1.55,0,0,1,1-.34.14.14,0,0,1,.15.15Z"/><path class="cls-1" d="M26.4,10.54a.34.34,0,0,1-.27.12h-.35a.15.15,0,0,1-.15-.14c0-.5.5-.68,1.28-.68s1.25.29,1.25,1v1.45a.15.15,0,0,1-.15.15h-.45a.14.14,0,0,1-.15-.15v-.07a1.35,1.35,0,0,1-.85.27c-.63,0-1.11-.29-1.11-.83s.48-.82,1.11-.82h.78c0-.38-.16-.49-.48-.49A.61.61,0,0,0,26.4,10.54Zm.94,1.23V11.4h-.72c-.23,0-.36.13-.36.29s.13.29.38.29A1.29,1.29,0,0,0,27.34,11.77Z"/><path class="cls-1" d="M28.73,9.32A.25.25,0,0,1,29,9.05h.3a.25.25,0,0,1,.27.27V9.4a.25.25,0,0,1-.27.27H29a.25.25,0,0,1-.27-.27Zm.16,3.15a.15.15,0,0,1-.15-.15V10.09a.15.15,0,0,1,.15-.14h.52a.15.15,0,0,1,.15.14v2.23a.15.15,0,0,1-.15.15Z"/><path class="cls-1" d="M30.29,12.47a.14.14,0,0,1-.14-.15V9.24a.15.15,0,0,1,.14-.15h.53a.15.15,0,0,1,.14.15v3.08a.14.14,0,0,1-.14.15Z"/><path class="cls-1" d="M7.76,8.18V3a1.62,1.62,0,0,0-1.6-1.69H3.09a1.6,1.6,0,0,0-1.6,1.6V8.08c0,.14.1.12.1.12,1.78-.25,2.18-3,2.18-3.14s.07-.18.13-.18H5.4c.12,0,.15.06.16.19,0,.35.47,2.78,2.11,3.19C7.67,8.26,7.76,8.29,7.76,8.18Z"/><path class="cls-1" d="M1.49,9.45v3.27a1.6,1.6,0,0,0,1.6,1.59H6.16a1.6,1.6,0,0,0,1.6-1.59V11c0-.07-.09-.07-.09-.07-3.18-.12-3.89-1.37-6.08-1.5C1.59,9.38,1.49,9.36,1.49,9.45Z"/><path class="cls-1" d="M12.44,4.78a.23.23,0,0,1,.23.23v.23a.23.23,0,0,1-.23.23H11.36V8a.23.23,0,0,1-.23.22h-.46A.23.23,0,0,1,10.44,8V5.47H9.36a.23.23,0,0,1-.23-.23V5a.23.23,0,0,1,.23-.23Z"/><path class="cls-1" d="M13.13,7.19a.54.54,0,0,0,.63.57.62.62,0,0,0,.47-.16.36.36,0,0,1,.28-.13h.37a.15.15,0,0,1,.15.15c0,.51-.54.69-1.33.69a1.26,1.26,0,0,1-1.42-1.37A1.28,1.28,0,0,1,13.7,5.55,1.26,1.26,0,0,1,15.12,6.9V7a.15.15,0,0,1-.15.15Zm0-.51h1.13c0-.38-.2-.58-.56-.58S13.15,6.3,13.13,6.68Z"/><path class="cls-1" d="M17.52,6.72c0-.41-.19-.58-.46-.58a1,1,0,0,0-.66.35V8.12a.14.14,0,0,1-.14.14h-.55a.15.15,0,0,1-.15-.14V5.75a.15.15,0,0,1,.15-.15h.55a.14.14,0,0,1,.14.15V5.9a1.28,1.28,0,0,1,.86-.35,1,1,0,0,1,1.1,1.17v1.4a.14.14,0,0,1-.15.14h-.54a.14.14,0,0,1-.15-.14Z"/><path class="cls-1" d="M19.66,7.19a.54.54,0,0,0,.63.57.66.66,0,0,0,.48-.16A.32.32,0,0,1,21,7.47h.37a.15.15,0,0,1,.15.15c0,.51-.54.69-1.33.69a1.26,1.26,0,0,1-1.42-1.37,1.28,1.28,0,0,1,1.42-1.39A1.26,1.26,0,0,1,21.65,6.9V7a.15.15,0,0,1-.15.15Zm0-.51h1.13c0-.38-.19-.58-.56-.58S19.68,6.3,19.66,6.68Z"/><path class="cls-1" d="M24.26,6.07a.15.15,0,0,1-.15.15H24l-.37,0a.85.85,0,0,0-.63.36V8.12a.14.14,0,0,1-.15.14h-.54a.14.14,0,0,1-.15-.14V5.75a.14.14,0,0,1,.15-.15h.54a.14.14,0,0,1,.15.15V5.9a1.6,1.6,0,0,1,1.08-.35.15.15,0,0,1,.15.15Z"/><path class="cls-1" d="M24.61,5a.25.25,0,0,1,.28-.28h.3a.26.26,0,0,1,.28.28v.08a.26.26,0,0,1-.28.28h-.3a.25.25,0,0,1-.28-.28Zm.16,3.25a.14.14,0,0,1-.15-.14V5.81a.14.14,0,0,1,.15-.15h.54a.14.14,0,0,1,.15.15V8.12a.14.14,0,0,1-.15.14Z"/><path class="cls-1" d="M26.07,6c0-.89.35-1.24,1.39-1.24a4,4,0,0,1,.65,0,.16.16,0,0,1,.15.15V5.2a.15.15,0,0,1-.15.15H28c-.11,0-.21,0-.34,0-.65,0-.77.13-.77.66V6h.88a.15.15,0,0,1,.15.15v.29a.15.15,0,0,1-.15.15h-.88V8.12a.15.15,0,0,1-.15.14h-.54a.14.14,0,0,1-.15-.14Z"/><path class="cls-1" d="M29.11,7.19a.54.54,0,0,0,.63.57.62.62,0,0,0,.47-.16.36.36,0,0,1,.28-.13h.37a.15.15,0,0,1,.15.15c0,.51-.54.69-1.33.69a1.26,1.26,0,0,1-1.42-1.37,1.28,1.28,0,0,1,1.42-1.39A1.25,1.25,0,0,1,31.09,6.9V7a.15.15,0,0,1-.14.15Zm0-.51h1.13c0-.38-.2-.58-.56-.58S29.13,6.3,29.11,6.68Z"/><path class="cls-1" d="M10.77,15.6l-.28.89h-.12l-.23-.69-.24.69H9.78L9.5,15.6h.14l.2.72.24-.72h.11l.24.72.2-.72Z"/><path class="cls-1" d="M12.09,15.6l-.28.89h-.13l-.23-.69-.23.69H11.1l-.29-.89H11l.21.72.23-.72h.12l.23.72L12,15.6Z"/><path class="cls-1" d="M13.4,15.6l-.28.89H13l-.24-.69-.23.69h-.12l-.28-.89h.14l.2.72.24-.72h.11l.24.72.2-.72Z"/><path class="cls-1" d="M13.75,16.49h-.17v-.17h.17Z"/><path class="cls-1" d="M14.42,16.49h-.09a.19.19,0,0,1-.17-.07.24.24,0,0,1-.06-.17V15.7H14v-.1h.11v-.28h.13v.28h.19v.1h-.19v.55c0,.08,0,.13.12.13h.07Z"/><path class="cls-1" d="M15.36,16.08h-.6a.33.33,0,0,0,.07.23.24.24,0,0,0,.19.08.37.37,0,0,0,.24-.1l.09.07a.6.6,0,0,1-.14.11.54.54,0,0,1-.19,0,.33.33,0,0,1-.28-.11.49.49,0,0,1-.11-.35.48.48,0,0,1,.1-.33.32.32,0,0,1,.27-.12.37.37,0,0,1,.27.11.53.53,0,0,1,.09.32Zm-.13-.1a.61.61,0,0,0,0-.15.23.23,0,0,0-.42,0,.33.33,0,0,0,0,.15Z"/><path class="cls-1" d="M16.34,16.49h-.13v-.55c0-.16-.07-.24-.22-.24a.23.23,0,0,0-.16.06.28.28,0,0,0-.06.18v.55h-.13V15.6h.13v.1a.31.31,0,0,1,.25-.11.34.34,0,0,1,.23.08.33.33,0,0,1,.09.25Z"/><path class="cls-1" d="M17.35,16.08h-.61a.39.39,0,0,0,.07.23.26.26,0,0,0,.2.08.34.34,0,0,0,.23-.1l.09.07a.45.45,0,0,1-.14.11.5.5,0,0,1-.19,0,.34.34,0,0,1-.28-.11.49.49,0,0,1-.11-.35.54.54,0,0,1,.1-.33.34.34,0,0,1,.27-.12.35.35,0,0,1,.27.11.53.53,0,0,1,.1.32Zm-.13-.1q0-.09,0-.15a.23.23,0,0,0-.42,0l0,.15Z"/><path class="cls-1" d="M18.22,15.67l-.1.1A.21.21,0,0,0,18,15.7a.24.24,0,0,0-.16.07.31.31,0,0,0,0,.17v.55h-.14V15.6h.14v.11a.27.27,0,0,1,.25-.12A.32.32,0,0,1,18.22,15.67Z"/><path class="cls-1" d="M18.53,15.34h-.15V15.2h.15Zm0,1.15h-.13V15.6h.13Z"/><path class="cls-1" d="M19.2,15.7H19v.79h-.13V15.7h-.12v-.1h.12v-.17a.31.31,0,0,1,.05-.17.27.27,0,0,1,.18-.07h.09v.12h-.07c-.08,0-.12,0-.12.13v.16h.19Z"/><path class="cls-1" d="M20.1,16.08h-.6a.33.33,0,0,0,.07.23.24.24,0,0,0,.19.08.37.37,0,0,0,.24-.1l.09.07a.6.6,0,0,1-.14.11.54.54,0,0,1-.19,0,.33.33,0,0,1-.28-.11.49.49,0,0,1-.11-.35.48.48,0,0,1,.1-.33.32.32,0,0,1,.27-.12.37.37,0,0,1,.27.11.53.53,0,0,1,.09.32ZM20,16a.61.61,0,0,0,0-.15.23.23,0,0,0-.42,0,.33.33,0,0,0,0,.15Z"/><path class="cls-1" d="M21.09,16a.48.48,0,0,1-.11.38.25.25,0,0,1-.21.08.31.31,0,0,1-.26-.12v.11h-.13V15.2h.13v.5a.33.33,0,0,1,.26-.11.25.25,0,0,1,.21.08A.47.47,0,0,1,21.09,16ZM21,16a.47.47,0,0,0,0-.23.18.18,0,0,0-.18-.11.2.2,0,0,0-.19.11.63.63,0,0,0,0,.23.65.65,0,0,0,0,.24.2.2,0,0,0,.19.11.18.18,0,0,0,.18-.11A.49.49,0,0,0,21,16Z"/><path class="cls-1" d="M21.69,16.49h-.1a.24.24,0,0,1-.17-.06.32.32,0,0,1-.05-.18V15.2h.13v1.05c0,.08,0,.13.12.13h.07Z"/><path class="cls-1" d="M22.61,16.49h-.13v-.1a.31.31,0,0,1-.26.11.31.31,0,0,1-.23-.08.33.33,0,0,1-.09-.25V15.6H22v.55c0,.16.08.24.22.24a.2.2,0,0,0,.16-.07.19.19,0,0,0,.07-.17V15.6h.13Z"/><path class="cls-1" d="M23.62,16.08H23a.39.39,0,0,0,.07.23.26.26,0,0,0,.2.08.37.37,0,0,0,.23-.1l.09.07a.6.6,0,0,1-.14.11.5.5,0,0,1-.19,0,.34.34,0,0,1-.28-.11.49.49,0,0,1-.11-.35.48.48,0,0,1,.1-.33.34.34,0,0,1,.27-.12.37.37,0,0,1,.27.11.53.53,0,0,1,.1.32Zm-.13-.1q0-.09,0-.15a.23.23,0,0,0-.42,0s0,.09,0,.15Z"/><path class="cls-1" d="M24.24,16.49h-.09a.19.19,0,0,1-.17-.07.24.24,0,0,1-.06-.17V15.7H23.8v-.1h.12v-.28h.13v.28h.19v.1h-.19v.55c0,.08,0,.13.12.13h.07Z"/><path class="cls-1" d="M25.09,15.67l-.09.1a.26.26,0,0,0-.16-.07.21.21,0,0,0-.15.07.25.25,0,0,0-.06.17v.55H24.5V15.6h.13v.11a.27.27,0,0,1,.25-.12A.29.29,0,0,1,25.09,15.67Z"/><path class="cls-1" d="M25.9,16.49h-.13v-.08a.36.36,0,0,1-.26.09.32.32,0,0,1-.25-.08.23.23,0,0,1-.07-.18.26.26,0,0,1,.08-.19A.33.33,0,0,1,25.5,16h.27V15.9c0-.14-.08-.2-.23-.2a.24.24,0,0,0-.22.1l-.09-.08a.33.33,0,0,1,.13-.11l.18,0c.24,0,.36.1.36.29Zm-.13-.32v-.09h-.25c-.13,0-.2.05-.2.16s.07.15.2.15a.27.27,0,0,0,.2-.06A.22.22,0,0,0,25.77,16.17Z"/><path class="cls-1" d="M26.36,15.34h-.15V15.2h.15Zm0,1.15h-.13V15.6h.13Z"/><path class="cls-1" d="M27,16.49H26.9a.22.22,0,0,1-.17-.06.26.26,0,0,1-.06-.18V15.2h.13v1.05c0,.08,0,.13.12.13H27Z"/><path class="cls-1" d="M27.38,16.49h-.17v-.17h.17Z"/><path class="cls-1" d="M28.35,16.37a.41.41,0,0,1-.14.1.38.38,0,0,1-.16,0,.38.38,0,0,1-.28-.11.52.52,0,0,1-.11-.35.51.51,0,0,1,.11-.34.38.38,0,0,1,.28-.11.38.38,0,0,1,.16,0,.41.41,0,0,1,.14.1l-.09.08a.3.3,0,0,0-.21-.1.22.22,0,0,0-.2.11.37.37,0,0,0-.06.23.38.38,0,0,0,.06.24.22.22,0,0,0,.2.11.28.28,0,0,0,.21-.11Z"/><path class="cls-1" d="M29.28,16a.5.5,0,0,1-.11.36.34.34,0,0,1-.26.1.32.32,0,0,1-.25-.1.46.46,0,0,1-.11-.36.45.45,0,0,1,.11-.35.32.32,0,0,1,.25-.1.34.34,0,0,1,.26.1A.49.49,0,0,1,29.28,16Zm-.13,0a.44.44,0,0,0-.07-.27.26.26,0,0,0-.17-.07.26.26,0,0,0-.16.07.38.38,0,0,0-.07.27.39.39,0,0,0,.07.28.26.26,0,0,0,.16.07.26.26,0,0,0,.17-.07A.45.45,0,0,0,29.15,16Z"/><path class="cls-1" d="M30.84,16.49h-.13v-.55c0-.16-.08-.24-.22-.24a.21.21,0,0,0-.23.23v.56h-.13v-.55c0-.16-.07-.24-.22-.24a.21.21,0,0,0-.16.06.28.28,0,0,0-.06.18v.55h-.13V15.6h.13v.1a.3.3,0,0,1,.25-.11.3.3,0,0,1,.28.15.32.32,0,0,1,.29-.15.34.34,0,0,1,.23.08.36.36,0,0,1,.1.25Z"/><path class="cls-1" d="M33.47,5a1.21,1.21,0,1,0,1.21,1.21A1.21,1.21,0,0,0,33.47,5Zm0,2.17a1,1,0,1,1,1-1A1,1,0,0,1,33.47,7.18Z"/><path class="cls-1" d="M33.27,6.35v.29a.06.06,0,0,1-.06.06h-.13A.06.06,0,0,1,33,6.64V5.8a.06.06,0,0,1,.06-.06h.55A.31.31,0,0,1,34,6c0,.15-.11.22-.25.25.06,0,.1.07.15.15l.12.2s0,.06,0,.06h-.16a.15.15,0,0,1-.1-.06l-.12-.18a.18.18,0,0,0-.17-.11Zm0-.42v.23h.28c.08,0,.18,0,.18-.12s-.1-.11-.18-.11Z"/></svg>