<svg id="Capa_1" data-name="Capa 1" xmlns="http://www.w3.org/2000/svg" viewBox="0 0 113.39 56.69"><defs><style>.cls-1{fill:#1d71b8;}.cls-2{fill:#888887;}.cls-3{fill:#fff;}</style></defs><path class="cls-1" d="M34.63,32.19a.57.57,0,0,1,.57-.57h4.9c1.55,0,3.14.67,3.14,2.46a1.89,1.89,0,0,1-.81,1.59,2.18,2.18,0,0,1,1.16,2c0,1.72-1.51,2.6-3.2,2.6H35.2a.57.57,0,0,1-.57-.57Zm2.28,1.06V35h3.22a.87.87,0,0,0,0-1.73Zm0,3.31v2.08h3.44a1,1,0,0,0,0-2.08Z"/><path class="cls-1" d="M45.07,40.27a.36.36,0,0,1-.37-.37V32a.36.36,0,0,1,.37-.37h1.35a.36.36,0,0,1,.37.37V39.9a.36.36,0,0,1-.37.37Z"/><path class="cls-1" d="M50.36,37.49c0,1,.47,1.44,1.14,1.44a2.48,2.48,0,0,0,1.62-.86V34a.36.36,0,0,1,.37-.37h1.35a.36.36,0,0,1,.37.37V39.9a.36.36,0,0,1-.37.37H53.49a.36.36,0,0,1-.37-.37v-.39a3.05,3.05,0,0,1-2.11.88c-1.6,0-2.74-.85-2.74-2.9V34a.36.36,0,0,1,.37-.37H50a.36.36,0,0,1,.37.37Z"/><path class="cls-1" d="M58.45,37.6A1.33,1.33,0,0,0,60,39a1.57,1.57,0,0,0,1.19-.41.86.86,0,0,1,.69-.32h.9a.36.36,0,0,1,.37.37c0,1.29-1.32,1.73-3.3,1.73-2.2,0-3.52-1.18-3.52-3.42a3.17,3.17,0,0,1,3.52-3.43c2.2,0,3.52,1.17,3.52,3.34v.35a.36.36,0,0,1-.37.37Zm0-1.27h2.81c0-.93-.48-1.42-1.4-1.42A1.3,1.3,0,0,0,58.43,36.33Z"/><path class="cls-1" d="M67.19,40.39c-1.73,0-2.59-.86-2.59-2.72V32a.36.36,0,0,1,.37-.37h1.34a.37.37,0,0,1,.38.37v2h1.68a.36.36,0,0,1,.37.37v.71a.36.36,0,0,1-.37.37H66.69v2.21c0,.84.43,1.29,1.06,1.29.32,0,.55-.08.83-.08h.22a.37.37,0,0,1,.37.37v.65a.41.41,0,0,1-.37.37A10.29,10.29,0,0,1,67.19,40.39Z"/><path class="cls-1" d="M75.3,34.82a.37.37,0,0,1-.38.37h-.19c-.29,0-.61,0-.93,0a2.07,2.07,0,0,0-1.56.89V39.9a.36.36,0,0,1-.37.37H70.53a.36.36,0,0,1-.37-.37V34a.36.36,0,0,1,.37-.37h1.34a.36.36,0,0,1,.37.37v.38a4,4,0,0,1,2.68-.87.37.37,0,0,1,.38.37Z"/><path class="cls-1" d="M78,35.32a.86.86,0,0,1-.69.32h-.91a.36.36,0,0,1-.37-.37c0-1.29,1.29-1.73,3.29-1.73,1.78,0,3.17.74,3.17,2.63V39.9a.36.36,0,0,1-.37.37H81a.36.36,0,0,1-.37-.37v-.19a3.55,3.55,0,0,1-2.19.68c-1.61,0-2.85-.73-2.85-2.12s1.24-2.1,2.85-2.1h2c0-1-.41-1.26-1.24-1.26A1.53,1.53,0,0,0,78,35.32Zm2.41,3.16v-.94H78.54c-.58,0-.91.32-.91.73s.33.75,1,.75A3.42,3.42,0,0,0,80.4,38.48Z"/><path class="cls-1" d="M84,32.19a.64.64,0,0,1,.69-.69h.75a.64.64,0,0,1,.69.69v.21a.64.64,0,0,1-.69.69h-.75A.64.64,0,0,1,84,32.4Zm.39,8.08A.36.36,0,0,1,84,39.9V34.18a.36.36,0,0,1,.37-.37h1.35a.36.36,0,0,1,.37.37V39.9a.36.36,0,0,1-.37.37Z"/><path class="cls-1" d="M88,40.27a.37.37,0,0,1-.38-.37V32a.37.37,0,0,1,.38-.37H89.3a.36.36,0,0,1,.37.37V39.9a.36.36,0,0,1-.37.37Z"/><path class="cls-1" d="M30.23,29.29V16a4.14,4.14,0,0,0-4.09-4.31H18.26a4.09,4.09,0,0,0-4.09,4.08V29c0,.36.26.3.26.3C19,28.68,20,21.69,20,21.27s.18-.44.32-.44h3.85c.3,0,.38.14.41.47.11.9,1.22,7.13,5.41,8.19C30,29.49,30.23,29.56,30.23,29.29Z"/><path class="cls-1" d="M14.17,32.53V40.9A4.09,4.09,0,0,0,18.26,45h7.88a4.09,4.09,0,0,0,4.09-4.09V36.38c0-.18-.23-.17-.23-.17-8.16-.32-10-3.53-15.59-3.85C14.41,32.36,14.17,32.32,14.17,32.53Z"/><path class="cls-2" d="M42.23,20.56a.58.58,0,0,1,.59.59v.59a.58.58,0,0,1-.59.59H39.45v6.59a.58.58,0,0,1-.59.57H37.69a.58.58,0,0,1-.59-.57V22.33H34.32a.58.58,0,0,1-.59-.59v-.59a.58.58,0,0,1,.59-.59Z"/><path class="cls-2" d="M44,26.74a1.38,1.38,0,0,0,1.59,1.47,1.62,1.62,0,0,0,1.23-.43.87.87,0,0,1,.71-.33h.93a.38.38,0,0,1,.39.39c0,1.32-1.37,1.78-3.41,1.78-2.27,0-3.63-1.22-3.63-3.53a3.27,3.27,0,0,1,3.63-3.55c2.27,0,3.64,1.21,3.64,3.46v.36a.38.38,0,0,1-.39.38Zm0-1.32h2.89c0-1-.5-1.46-1.44-1.46A1.34,1.34,0,0,0,44,25.42Z"/><path class="cls-2" d="M55.24,25.54c0-1.06-.49-1.49-1.19-1.49a2.55,2.55,0,0,0-1.67.89v4.17a.37.37,0,0,1-.38.38H50.61a.38.38,0,0,1-.39-.38V23.05a.38.38,0,0,1,.39-.38H52a.38.38,0,0,1,.38.38v.4a3.19,3.19,0,0,1,2.18-.91c1.66,0,2.83.88,2.83,3v3.57a.37.37,0,0,1-.38.38H55.62a.37.37,0,0,1-.38-.38Z"/><path class="cls-2" d="M60.73,26.74a1.39,1.39,0,0,0,1.6,1.47,1.61,1.61,0,0,0,1.22-.43.9.9,0,0,1,.72-.33h.93a.38.38,0,0,1,.38.39c0,1.32-1.37,1.78-3.41,1.78-2.27,0-3.63-1.22-3.63-3.53a3.27,3.27,0,0,1,3.63-3.55c2.27,0,3.64,1.21,3.64,3.46v.36a.38.38,0,0,1-.38.38Zm0-1.32h2.9c0-1-.5-1.46-1.45-1.46A1.34,1.34,0,0,0,60.72,25.42Z"/><path class="cls-2" d="M72.51,23.87a.38.38,0,0,1-.39.38h-.2c-.29,0-.62,0-1,0a2.11,2.11,0,0,0-1.6.92v4a.38.38,0,0,1-.39.38H67.58a.37.37,0,0,1-.38-.38V23.05a.38.38,0,0,1,.38-.38H69a.38.38,0,0,1,.39.38v.4a4,4,0,0,1,2.76-.91.38.38,0,0,1,.39.38Z"/><path class="cls-2" d="M73.4,21.15a.66.66,0,0,1,.71-.71h.78a.65.65,0,0,1,.71.71v.22a.65.65,0,0,1-.71.71h-.78a.65.65,0,0,1-.71-.71Zm.41,8.34a.38.38,0,0,1-.39-.38v-5.9a.38.38,0,0,1,.39-.39H75.2a.38.38,0,0,1,.38.39v5.9a.37.37,0,0,1-.38.38Z"/><path class="cls-2" d="M77.13,23.63c0-2.3.9-3.19,3.58-3.19a10.85,10.85,0,0,1,1.65.12.44.44,0,0,1,.39.39v.69a.38.38,0,0,1-.39.38h-.23c-.28,0-.52-.1-.85-.1-1.67,0-2,.33-2,1.71v.1h2.26a.37.37,0,0,1,.38.38v.74a.37.37,0,0,1-.38.38H79.29v3.88a.37.37,0,0,1-.38.38H77.52a.38.38,0,0,1-.39-.38Z"/><path class="cls-2" d="M84.94,26.74a1.39,1.39,0,0,0,1.6,1.47,1.61,1.61,0,0,0,1.22-.43.87.87,0,0,1,.71-.33h.93a.38.38,0,0,1,.39.39c0,1.32-1.37,1.78-3.41,1.78-2.27,0-3.63-1.22-3.63-3.53a3.27,3.27,0,0,1,3.63-3.55C88.65,22.54,90,23.75,90,26v.36a.38.38,0,0,1-.39.38Zm0-1.32h2.89c0-1-.49-1.46-1.44-1.46A1.34,1.34,0,0,0,84.93,25.42Z"/><path class="cls-1" d="M99.21,24.25a3.11,3.11,0,1,1-3.1-3.1A3.1,3.1,0,0,1,99.21,24.25Z"/><path class="cls-3" d="M98.56,24.25a2.46,2.46,0,1,1-2.45-2.45A2.46,2.46,0,0,1,98.56,24.25Z"/><path class="cls-1" d="M95.59,24.59v.73a.17.17,0,0,1-.17.17H95.1a.17.17,0,0,1-.16-.17V23.18A.16.16,0,0,1,95.1,23h1.42a.8.8,0,0,1,.89.78c0,.38-.29.56-.64.63.14.05.25.18.39.4l.31.49c.06.1,0,.17-.06.17H97a.35.35,0,0,1-.27-.17l-.29-.45a.49.49,0,0,0-.43-.28Zm0-1.08v.59h.73c.2,0,.45-.07.45-.3s-.25-.29-.45-.29Z"/></svg>